<svg width="111" height="93" viewBox="0 0 111 93" fill="none" xmlns="http://www.w3.org/2000/svg">
<g clip-path="url(#clip0_304_125)">
<path d="M102.19 91.2089L100.533 91.2088L99.7447 84.8149H102.19L102.19 91.2089Z" fill="#9E616A"/>
<path d="M102.613 92.8158L97.2693 92.8156V92.748C97.2694 92.1963 97.4885 91.6671 97.8786 91.277C98.2686 90.8868 98.7976 90.6676 99.3492 90.6676H99.3493L102.613 90.6677L102.613 92.8158Z" fill="#2F2E41"/>
<path d="M95.8371 91.2089L94.1798 91.2088L93.3915 84.8149H95.8373L95.8371 91.2089Z" fill="#9E616A"/>
<path d="M96.2597 92.8158L90.9162 92.8156V92.748C90.9162 92.1963 91.1354 91.6671 91.5254 91.277C91.9154 90.8868 92.4444 90.6676 92.996 90.6676H92.9962L96.2598 90.6677L96.2597 92.8158Z" fill="#2F2E41"/>
<path d="M24.2409 92.5686V41.2132C24.2409 40.8969 24.3665 40.5936 24.5901 40.3699C24.8137 40.1463 25.1169 40.0206 25.4331 40.0206H30.7536C31.0698 40.0206 31.373 40.1463 31.5966 40.3699C31.8202 40.5936 31.9458 40.8969 31.9458 41.2132V92.7024L24.2409 92.5686Z" fill="#3F3D56"/>
<path d="M41.8134 92.7294V51.895C41.8134 51.5787 41.939 51.2753 42.1626 51.0517C42.3862 50.828 42.6894 50.7024 43.0056 50.7024H48.3261C48.6423 50.7024 48.9455 50.828 49.1691 51.0517C49.3927 51.2753 49.5183 51.5787 49.5183 51.895V92.6415L41.8134 92.7294Z" fill="#3F3D56"/>
<path d="M10.5883 44.2148C10.51 44.2147 10.4333 44.192 10.3676 44.1494C10.3019 44.1068 10.25 44.046 10.2181 43.9745C10.1862 43.9029 10.1756 43.8237 10.1878 43.7463C10.1999 43.6689 10.2342 43.5967 10.2865 43.5384L28.076 23.6903L45.5834 33.5243L63.195 3.16919L81.1362 17.9406C81.1774 17.9744 81.2115 18.016 81.2366 18.0631C81.2617 18.1101 81.2772 18.1616 81.2824 18.2146C81.2876 18.2677 81.2822 18.3212 81.2667 18.3722C81.2512 18.4232 81.2258 18.4706 81.1919 18.5118C81.158 18.5529 81.1164 18.587 81.0694 18.6121C81.0223 18.6371 80.9708 18.6526 80.9178 18.6578C80.8648 18.6629 80.8112 18.6575 80.7603 18.6419C80.7093 18.6264 80.6619 18.6009 80.6208 18.567L63.417 4.40275L45.8835 34.6233L28.2458 24.7161L10.8903 44.0799C10.8523 44.1224 10.8058 44.1564 10.7537 44.1796C10.7017 44.2029 10.6453 44.2148 10.5883 44.2148Z" fill="#3F3D56"/>
<path d="M10.5208 47.5951C12.6111 47.5951 14.3057 45.9001 14.3057 43.8092C14.3057 41.7182 12.6111 40.0232 10.5208 40.0232C8.4305 40.0232 6.73596 41.7182 6.73596 43.8092C6.73596 45.9001 8.4305 47.5951 10.5208 47.5951Z" fill="#6C63FF"/>
<path d="M28.0933 27.9892C30.1836 27.9892 31.8782 26.2941 31.8782 24.2032C31.8782 22.1123 30.1836 20.4172 28.0933 20.4172C26.003 20.4172 24.3085 22.1123 24.3085 24.2032C24.3085 26.2941 26.003 27.9892 28.0933 27.9892Z" fill="#CCCCCC"/>
<path d="M45.6659 37.8598C47.7562 37.8598 49.4507 36.1648 49.4507 34.0738C49.4507 31.9829 47.7562 30.2878 45.6659 30.2878C43.5755 30.2878 41.881 31.9829 41.881 34.0738C41.881 36.1648 43.5755 37.8598 45.6659 37.8598Z" fill="#E6E6E6"/>
<path d="M63.2384 7.57195C65.3287 7.57195 67.0233 5.87691 67.0233 3.78597C67.0233 1.69504 65.3287 0 63.2384 0C61.1481 0 59.4536 1.69504 59.4536 3.78597C59.4536 5.87691 61.1481 7.57195 63.2384 7.57195Z" fill="#6C63FF"/>
<path d="M97.0317 35.7686C99.1221 35.7686 100.817 34.0736 100.817 31.9826C100.817 29.8917 99.1221 28.1967 97.0317 28.1967C94.9414 28.1967 93.2469 29.8917 93.2469 31.9826C93.2469 34.0736 94.9414 35.7686 97.0317 35.7686Z" fill="#6C63FF"/>
<path d="M95.6935 61.4755C97.1101 61.6462 100.733 60.3535 100.929 62.3201C102.794 67.8105 102.738 88.8566 102.738 88.8566L99.8995 88.9918C99.8995 88.9918 97.6312 72.2694 96.5586 68.6919C96.0204 73.0402 96.1147 89.6679 96.1147 89.6679L93.5464 89.8031C93.5464 89.8031 91.2426 75.6439 91.2295 71.488C90.9495 68.4439 91.6362 63.9329 91.3423 60.9901C92.7469 61.4354 94.2253 61.6004 95.6935 61.4755L95.6935 61.4755Z" fill="#3F3D56"/>
<path d="M76.9585 92.5474V33.3572C76.9585 32.5982 77.4923 31.9827 78.1507 31.9827H83.4711C84.1296 31.9827 84.6634 32.598 84.6634 33.3572V92.7024L76.9585 92.5474Z" fill="#3F3D56"/>
<path d="M90.8746 45.5475C90.3064 44.3856 89.6124 43.2897 88.8051 42.2794C88.6364 42.082 88.4827 41.8723 88.3455 41.652C88.0548 41.1476 87.9683 40.5554 87.7845 40.0037C87.2708 38.4569 85.9894 37.2143 85.6772 35.6147C85.5636 35.0333 84.6045 36.7232 84.8566 37.4441C85.3068 38.7489 85.3649 40.1308 85.938 41.391C86.5112 42.6512 87.1843 43.86 87.6791 45.1486C87.9602 45.8801 88.1846 46.6359 88.5969 47.312C89.0092 47.9881 89.6526 48.5546 90.4299 48.656C90.4246 48.1659 90.499 47.6782 90.6502 47.2119C90.8191 46.6792 91.1192 46.0518 90.8746 45.5475Z" fill="#9E616A"/>
<path d="M99.3783 46.4236C99.3436 45.4675 99.4927 44.5137 99.8177 43.6139C99.942 43.2691 100.088 42.9189 100.076 42.5524C100.058 42.2117 99.8961 41.8994 99.7487 41.5911C99.2405 40.5297 98.8836 39.4047 98.5322 38.2824L97.8563 36.1663C97.6359 36.0047 98.9228 35.9486 99.1972 36.3286C100.095 37.5752 100.775 39.0072 101.486 40.3687C101.667 40.6932 101.822 41.0319 101.948 41.3815C102.122 41.9481 102.204 42.5387 102.191 43.1312C102.191 44.2386 102.045 45.3419 101.894 46.4398C101.798 47.1281 101.672 47.8771 101.152 48.3328C100.611 47.6405 100.068 46.9645 99.3783 46.4236Z" fill="#9E616A"/>
<path d="M95.8044 45.3282C97.3534 45.3282 98.6092 44.072 98.6092 42.5225C98.6092 40.9729 97.3534 39.7168 95.8044 39.7168C94.2553 39.7168 92.9995 40.9729 92.9995 42.5225C92.9995 44.072 94.2553 45.3282 95.8044 45.3282Z" fill="#9E616A"/>
<path d="M93.5242 39.7232C93.4927 39.6381 93.4856 39.5458 93.5038 39.4568C93.5219 39.3679 93.5646 39.2858 93.6269 39.2198C93.6969 39.1646 93.7899 39.144 93.865 39.0913C93.9718 39.0015 94.0591 38.891 94.1218 38.7663C94.3134 38.4981 94.5938 38.3065 94.9132 38.2254C95.2326 38.1443 95.5705 38.179 95.8667 38.3233C96.3303 38.566 96.6101 39.0519 97.0224 39.3791C97.2317 39.5486 97.4744 39.6745 97.685 39.844C98.1067 40.2084 98.4065 40.6935 98.5439 41.2337C98.6806 41.7703 98.7604 42.3198 98.7821 42.8731C98.804 43.0391 98.7975 43.2077 98.7629 43.3715C98.7202 43.5089 98.6566 43.6389 98.5742 43.7568C98.1504 44.399 97.5919 44.9822 96.8921 45.3136C96.1923 45.645 95.341 45.6989 94.6509 45.3521C94.5814 45.324 94.5216 45.2762 94.4788 45.2147C94.4396 45.1209 94.4302 45.0173 94.4519 44.918C94.4894 44.5255 94.4118 44.1305 94.2285 43.7814C94.1001 43.5245 93.9075 43.3036 93.8048 43.0378C93.7093 42.7402 93.6683 42.4278 93.684 42.1156C93.6718 41.3068 93.7268 40.5016 93.5242 39.7232Z" fill="#2D293D"/>
<path d="M6.66824 92.6279V64.0518C6.66824 63.6854 7.20204 63.3882 7.86047 63.3882H13.1809C13.8393 63.3882 14.3731 63.6856 14.3731 64.0518V92.7024L6.66824 92.6279Z" fill="#3F3D56"/>
<path d="M110.865 93H0.135173C0.0993231 93 0.0649412 92.9858 0.0395912 92.9604C0.0142413 92.9351 0 92.9007 0 92.8648C0 92.829 0.0142413 92.7946 0.0395912 92.7692C0.0649412 92.7439 0.0993231 92.7296 0.135173 92.7296H110.865C110.901 92.7296 110.935 92.7439 110.96 92.7692C110.986 92.7946 111 92.829 111 92.8648C111 92.9007 110.986 92.9351 110.96 92.9604C110.935 92.9858 110.901 93 110.865 93H110.865Z" fill="#E6E6E6"/>
<path d="M59.3858 92.5274V25.3574C59.3858 24.496 59.9196 23.7976 60.5781 23.7976H65.8985C66.5569 23.7976 67.0907 24.496 67.0907 25.3574V92.7025L59.3858 92.5274Z" fill="#6C63FF"/>
<path d="M84.7783 37.0979C85.4502 37.0979 85.9949 36.5531 85.9949 35.881C85.9949 35.2089 85.4502 34.6641 84.7783 34.6641C84.1064 34.6641 83.5618 35.2089 83.5618 35.881C83.5618 36.5531 84.1064 37.0979 84.7783 37.0979Z" fill="#A0616A"/>
<path d="M98.2957 36.557C98.9675 36.557 99.5122 36.0122 99.5122 35.3401C99.5122 34.668 98.9675 34.1232 98.2957 34.1232C97.6238 34.1232 97.0791 34.668 97.0791 35.3401C97.0791 36.0122 97.6238 36.557 98.2957 36.557Z" fill="#A0616A"/>
<path d="M101.252 50.4043C101.371 50.2956 102.338 44.6342 102.333 44.5066C102.318 43.8091 100.19 43.0125 99.7644 43.2897C99.3627 43.5512 98.6632 46.5516 98.213 47.098L97.7368 46.2644H93.9519L93.7225 46.6906C93.2259 46.3913 92.7792 46.1153 92.6198 46.024C92.5651 45.9869 92.5054 45.9576 92.4426 45.9368C92.0492 45.8488 91.68 45.6753 91.3612 45.4284C91.0503 45.1891 89.6075 42.6826 89.2209 42.7488C88.7843 42.8219 87.3116 44.0956 87.3285 45.3179C87.5138 45.3139 89.9256 50.1379 89.9595 50.3177C90.1447 51.0776 90.7562 62.1597 90.9535 62.6762C91.8627 62.5883 91.1449 62.4315 92.0249 62.6762C92.9725 62.9399 93.9728 62.6546 94.9501 62.5491C95.357 62.5088 95.7658 62.4908 96.1747 62.495C97.6616 62.5018 99.7839 62.5843 101.223 62.9534C101.232 62.0096 100.403 59.9679 100.096 59.0769C100.056 58.8105 100.057 58.5396 100.1 58.2737C100.139 57.9478 100.931 50.7646 101.252 50.4043Z" fill="#E6E6E6"/>
</g>
<defs>
<clipPath id="clip0_304_125">
<rect width="111" height="93" fill="white"/>
</clipPath>
</defs>
</svg>
