<svg width="118" height="79" viewBox="0 0 118 79" fill="none" xmlns="http://www.w3.org/2000/svg">
<g clip-path="url(#clip0_304_150)">
<path d="M118 41.9873C118 57.9667 107.86 71.5818 93.6581 76.7625C91.4975 77.5521 89.2673 78.1368 86.9971 78.5088C80.7513 79.532 74.3476 78.9511 68.3886 76.8208C54.0964 71.6827 43.8827 58.0217 43.8894 41.9795C43.8894 21.5462 60.4801 4.97465 80.9447 4.97465C88.6789 4.96341 96.2211 7.38028 102.505 11.8837C111.887 18.5976 118 29.5791 118 41.9873Z" fill="#E5E5E5"/>
<path d="M93.6581 76.7624C91.4975 77.5521 89.2674 78.1368 86.9971 78.5087C80.7513 79.5319 74.3476 78.951 68.3886 76.8207L70.0998 69.9622L70.2031 69.5505L73.6953 69.564L91.2394 69.6268L91.4639 70.2897L93.6581 76.7624Z" fill="#2F2E41"/>
<path d="M32.1877 0H0V36.3796H32.1877V0Z" fill="#E6E6E6"/>
<path d="M31.5575 0.769653H0.573914V35.61H31.5575V0.769653Z" fill="white"/>
<path d="M16.0939 34.3713C17.0531 34.3713 17.8307 33.5946 17.8307 32.6365C17.8307 31.6784 17.0531 30.9017 16.0939 30.9017C15.1347 30.9017 14.3571 31.6784 14.3571 32.6365C14.3571 33.5946 15.1347 34.3713 16.0939 34.3713Z" fill="#E6E6E6"/>
<path d="M15.8005 13.1024H5.82509V14.1217H15.8005V13.1024Z" fill="#E6E6E6"/>
<path d="M20.8807 16.1569H5.82509V17.1762H20.8807V16.1569Z" fill="#6C63FF"/>
<path d="M19.4028 19.2305H5.82509V20.2498H19.4028V19.2305Z" fill="#E6E6E6"/>
<path d="M26.792 22.2229H5.82509V23.2422H26.792V22.2229Z" fill="#6C63FF"/>
<path d="M23.1306 25.0728H6.04305V26.0921H23.1306V25.0728Z" fill="#E6E6E6"/>
<path d="M45.7699 59.1968C45.8923 59.3224 46.0046 59.4574 46.1058 59.6006L61.8384 59.2161L63.6738 55.8661L69.0974 57.972L66.4249 64.2178C66.209 64.7224 65.8351 65.1434 65.3593 65.4177C64.8835 65.6919 64.3315 65.8046 63.7861 65.7388L46.0108 63.594C45.5915 64.1242 45.0205 64.5143 44.3738 64.7125C43.7272 64.9107 43.0354 64.9075 42.3906 64.7034C41.7457 64.4993 41.1784 64.1039 40.764 63.5698C40.3496 63.0358 40.1078 62.3884 40.0708 61.7138C40.0338 61.0391 40.2032 60.3692 40.5567 59.7931C40.9101 59.217 41.4308 58.7621 42.0494 58.4888C42.668 58.2154 43.3553 58.1367 44.0198 58.2631C44.6843 58.3894 45.2945 58.7149 45.7694 59.1961L45.7699 59.1968Z" fill="#9F616A"/>
<path d="M66.9453 40.068L74.308 37.6578L76.4705 34.6956L86.9937 35.3176L88.5387 38.7744L94.15 41.4228L93.2876 57.4194L91.8124 72.3902C84.2264 68.4665 70.0689 71.4579 69.9449 71.5066L66.9453 40.068Z" fill="#6C63FF"/>
<path d="M68.5193 61.7204L61.0303 58.7275L61.0622 58.5944C61.0943 58.4598 64.2817 45.1557 64.7049 43.0178C65.1458 40.7904 66.7566 40.1745 66.8249 40.1495L66.8749 40.1311L69.8387 41.0322L71.1403 51.2478L68.5193 61.7204Z" fill="#6C63FF"/>
<path d="M84.6894 71.7321C84.865 71.7279 85.0406 71.7376 85.2146 71.761L95.6291 59.9762L94.4177 56.355L99.6512 53.8143L102.42 60.0182C102.643 60.5194 102.698 61.0795 102.576 61.6145C102.454 62.1495 102.161 62.6304 101.742 62.9852L88.0822 74.5458C88.1863 75.2134 88.0844 75.8968 87.7902 76.5052C87.4959 77.1136 87.0232 77.618 86.4349 77.9515C85.8466 78.2849 85.1706 78.4316 84.4968 78.372C83.8231 78.3123 83.1834 78.0492 82.663 77.6176C82.1426 77.186 81.7661 76.6064 81.5835 75.9558C81.4009 75.3053 81.4209 74.6146 81.6409 73.9757C81.8609 73.3368 82.2704 72.7799 82.815 72.3791C83.3595 71.9783 84.0133 71.7526 84.6894 71.7321Z" fill="#9F616A"/>
<path d="M94.7978 61.1233L90.4534 50.9161L92.1479 43.8062L93.9736 41.5023C94.1073 41.4452 94.2514 41.4164 94.3968 41.4178C94.5423 41.4191 94.6858 41.4506 94.8184 41.5102C95.4922 41.7808 96.0649 42.6105 96.5227 43.9759L100.594 55.5596L94.7978 61.1233Z" fill="#6C63FF"/>
<path d="M72.2582 30.9132V23.218C72.2537 21.8638 72.5163 20.522 73.0309 19.2693C73.5456 18.0165 74.3022 16.8772 75.2577 15.9165C76.2131 14.9558 77.3487 14.1925 78.5995 13.6701C79.8503 13.1478 81.1918 12.8766 82.5475 12.8721C83.9032 12.8676 85.2465 13.1299 86.5008 13.644C87.755 14.1581 88.8956 14.9138 89.8574 15.8682C90.8192 16.8225 91.5834 17.9568 92.1063 19.2061C92.6293 20.4555 92.9008 21.7955 92.9053 23.1496C92.9053 23.1724 92.9053 23.1952 92.9053 23.218V30.9132C92.9049 31.2805 92.7586 31.6326 92.4986 31.8923C92.2387 32.1519 91.8862 32.298 91.5185 32.2984H73.6449C73.2773 32.298 72.9248 32.1519 72.6648 31.8923C72.4048 31.6326 72.2586 31.2805 72.2582 30.9132Z" fill="#2F2E41"/>
<path d="M80.4603 32.1192C84.6404 32.1192 88.0291 28.7344 88.0291 24.559C88.0291 20.3837 84.6404 16.9989 80.4603 16.9989C76.2801 16.9989 72.8915 20.3837 72.8915 24.559C72.8915 28.7344 76.2801 32.1192 80.4603 32.1192Z" fill="#9F616A"/>
<path d="M69.8159 23.8336C69.8183 21.6709 70.6795 19.5976 72.2105 18.0683C73.7414 16.5391 75.8172 15.6789 77.9823 15.6765H79.5232C81.6884 15.6789 83.7641 16.5391 85.2951 18.0683C86.826 19.5976 87.6872 21.6709 87.6896 23.8336V23.9874H84.4332L83.3225 20.8806L83.1004 23.9874H81.4177L80.8574 22.4201L80.7451 23.9874H69.8159V23.8336Z" fill="#2F2E41"/>
<path d="M79.7155 33.1638C79.5626 32.957 79.4713 32.7113 79.4521 32.455C79.4329 32.1987 79.4866 31.9421 79.6069 31.7149C81.2397 28.6128 83.5258 22.8807 80.4914 19.3456L80.2738 19.0919H89.0835V32.3032L81.0806 33.7136C80.9996 33.7279 80.9175 33.7352 80.8352 33.7353C80.6168 33.7353 80.4014 33.6835 80.2068 33.5842C80.0123 33.4849 79.8441 33.341 79.7161 33.1641L79.7155 33.1638Z" fill="#2F2E41"/>
<path d="M16.0659 2.83337C15.3354 2.83334 14.6214 3.04966 14.014 3.45498C13.4066 3.86031 12.9332 4.43643 12.6536 5.1105C12.3741 5.78457 12.3009 6.52631 12.4434 7.24192C12.5858 7.95753 12.9376 8.61487 13.454 9.13081C13.9705 9.64676 14.6286 9.99814 15.345 10.1405C16.0614 10.2829 16.804 10.2099 17.4789 9.93071C18.1538 9.65153 18.7306 9.17872 19.1365 8.57209C19.5423 7.96545 19.759 7.25222 19.759 6.5226V6.52241C19.759 6.03796 19.6635 5.55825 19.4779 5.11068C19.2923 4.6631 19.0202 4.25643 18.6773 3.91387C18.3343 3.57131 17.9272 3.29958 17.4791 3.11418C17.031 2.92879 16.5507 2.83337 16.0657 2.83337H16.0659ZM16.0659 3.93998C16.285 3.93998 16.4992 4.00488 16.6814 4.12648C16.8636 4.24808 17.0056 4.4209 17.0895 4.62311C17.1733 4.82532 17.1953 5.04782 17.1525 5.26248C17.1098 5.47714 17.0042 5.67432 16.8493 5.82909C16.6944 5.98385 16.497 6.08924 16.2821 6.13194C16.0671 6.17464 15.8444 6.15273 15.6419 6.06898C15.4395 5.98522 15.2665 5.84338 15.1447 5.6614C15.023 5.47942 14.958 5.26547 14.958 5.0466C14.958 4.75311 15.0747 4.47164 15.2825 4.26411C15.4903 4.05658 15.7721 3.93999 16.0659 3.93998ZM16.0659 9.26771C15.6282 9.26571 15.1976 9.15708 14.8115 8.95124C14.4253 8.74539 14.0953 8.44856 13.8499 8.08647C13.8677 7.34866 15.3273 6.94254 16.0659 6.94254C16.8046 6.94254 18.2641 7.34866 18.2819 8.08647C18.0363 8.44829 17.7062 8.74493 17.3201 8.95074C16.934 9.15655 16.5035 9.26534 16.0659 9.26771Z" fill="#6C63FF"/>
<path d="M16.1088 33.3014C17.6303 30.5164 21.2752 28.7526 24.2568 30.3424C25.5989 31.0579 26.6658 32.3235 27.0044 33.8193C27.3974 35.557 26.5693 37.214 25.7145 38.6738C25.2505 39.4662 24.742 40.2425 24.358 41.0783C23.9604 41.9439 23.6762 42.9442 23.9756 43.8858C24.2451 44.734 24.9208 45.351 25.6608 45.8045C26.4775 46.286 27.3462 46.6736 28.2503 46.9597C30.1113 47.578 32.0742 47.8316 34.0315 47.7068C35.0042 47.6408 35.9688 47.4851 36.9128 47.2416C37.917 46.9859 38.9024 46.6617 39.9083 46.4116C41.5877 45.9949 43.5026 45.7878 45.0951 46.6247C46.6422 47.4381 47.3345 49.1392 47.5487 50.7941C47.9442 53.8501 46.7311 57.0213 44.5409 59.1613C43.4901 60.188 42.1678 61.0362 40.7276 61.3833C39.471 61.6861 37.8574 61.6667 36.8573 60.7284C35.7414 59.6811 36.0039 58.0019 36.8902 56.897C38.0215 55.4872 39.9381 55.1486 41.6483 55.1143C43.5939 55.0753 45.5376 55.3647 47.482 55.1848C48.4311 55.111 49.3623 54.8866 50.2407 54.5201C51.0129 54.1808 51.7173 53.7047 52.3197 53.1148C53.5201 51.95 54.3297 50.3981 54.7322 48.7846C55.217 46.8442 55.1113 44.8049 54.735 42.8559C54.5345 41.8509 54.2762 40.8583 53.9616 39.8829C53.8317 39.4713 53.181 39.6474 53.3119 40.0618C54.4707 43.7321 55.1168 47.9761 52.8779 51.3839C51.9514 52.829 50.508 53.8668 48.8419 54.2858C46.9041 54.7668 44.8708 54.5291 42.9008 54.4575C41.0276 54.3894 38.9707 54.4629 37.365 55.5526C36.0477 56.4464 35.1264 58.1466 35.5246 59.7516C35.9085 61.2994 37.3977 62.0845 38.8871 62.2054C40.4498 62.3326 41.9876 61.8087 43.3 60.9895C46.0301 59.2854 47.8453 56.2885 48.2252 53.1111C48.4232 51.4556 48.2217 49.6722 47.4701 48.1695C47.074 47.356 46.4575 46.6698 45.6906 46.1887C44.9259 45.7204 44.0427 45.4899 43.1556 45.4084C41.1402 45.223 39.2039 45.9141 37.2921 46.4428C36.3155 46.7258 35.3144 46.9167 34.3021 47.0129C33.3196 47.0942 32.3314 47.0781 31.352 46.9649C30.3803 46.8504 29.4225 46.6381 28.4935 46.3312C27.5831 46.0501 26.7114 45.6565 25.8987 45.1595C25.1818 44.7015 24.5617 44.0456 24.5265 43.1518C24.4882 42.1826 24.9774 41.2761 25.4427 40.459C26.362 38.8449 27.4976 37.2661 27.7373 35.3766C27.9473 33.7237 27.2815 32.0946 26.1316 30.9156C25.5554 30.3173 24.8616 29.8442 24.0938 29.526C23.326 29.2079 22.5007 29.0515 21.6696 29.0667C19.9636 29.1155 18.3301 29.8565 17.0753 30.9946C16.4529 31.5594 15.9292 32.2239 15.5257 32.9608C15.3179 33.3411 15.8994 33.681 16.1075 33.3004L16.1088 33.3014Z" fill="#3F3D56"/>
</g>
<defs>
<clipPath id="clip0_304_150">
<rect width="118" height="79" fill="white"/>
</clipPath>
</defs>
</svg>
