<svg width="375" height="280" viewBox="0 0 375 280" fill="none" xmlns="http://www.w3.org/2000/svg">
<g clip-path="url(#clip0_308_546)">
<path d="M387.719 213.982C398.773 193.561 400.405 170.287 397.813 147.798C395.515 127.849 392.052 104.965 382.342 86.9624C357.789 41.3465 295.633 19.9362 245.183 33.6503C224.137 39.3938 209.377 52.6356 192.486 65.2585C179.992 74.5884 166.288 83.695 150.146 85.5584C111.492 90.0255 67.5005 53.6503 30.8439 56.8411C-5.81262 60.0319 -34.4428 92.5782 -35.8061 120.657C-37.1694 148.736 -9.14736 177.454 -11.81 196.599C-14.4727 215.743 -31.8057 266.796 36.835 268.711C105.476 270.625 141.473 232.336 168.138 240.632C194.803 248.928 253.446 273.178 302.763 266.796C334.939 262.629 366.398 246.879 384.051 220.115C385.374 218.111 386.597 216.067 387.719 213.982Z" fill="#92E3A9"/>
<path opacity="0.8" d="M387.719 213.982C398.773 193.561 400.405 170.287 397.813 147.798C395.515 127.849 392.052 104.965 382.342 86.9624C357.789 41.3465 295.633 19.9362 245.183 33.6503C224.137 39.3938 209.377 52.6356 192.486 65.2585C179.992 74.5884 166.288 83.695 150.146 85.5584C111.492 90.0255 67.5005 53.6503 30.8439 56.8411C-5.81262 60.0319 -34.4428 92.5782 -35.8061 120.657C-37.1694 148.736 -9.14736 177.454 -11.81 196.599C-14.4727 215.743 -31.8057 266.796 36.835 268.711C105.476 270.625 141.473 232.336 168.138 240.632C194.803 248.928 253.446 273.178 302.763 266.796C334.939 262.629 366.398 246.879 384.051 220.115C385.374 218.111 386.597 216.067 387.719 213.982Z" fill="white"/>
<path d="M-37.8991 279.681H409.622" stroke="#263238" stroke-linecap="round" stroke-linejoin="round"/>
<path d="M137.504 7.1283C137.504 7.1283 135.418 1.55076 130.566 0.536081C125.714 -0.478597 123.781 2.45057 122.738 4.8692C121.695 7.28784 118.559 5.39249 115.947 5.04789C113.336 4.70328 111.915 7.29422 111.396 9.2087C110.878 11.1232 107.556 8.3408 104.605 10.0766C101.654 11.8124 101.123 14.0715 100.425 14.5884C99.7278 15.1053 97.8204 14.2438 96.7707 15.635L95.7274 17.0198H150.216C150.216 17.0198 151.957 13.0313 148.648 10.0766C145.339 7.12191 139.598 11.6401 137.504 7.1283Z" stroke="#263238" stroke-miterlimit="10" stroke-linecap="round"/>
<path d="M287.914 12.2655C287.914 12.2655 284.246 2.52074 275.695 0.695597C267.143 -1.12955 263.789 4.04595 261.959 8.30887C260.128 12.5718 254.63 9.22144 250.047 8.60881C245.464 7.99617 243.006 12.5718 242.11 15.9158C241.214 19.2597 235.39 14.3969 230.199 17.441C225.008 20.485 224.093 24.4608 222.87 25.3542C221.647 26.2476 218.294 24.716 216.469 27.1793L214.626 29.6299H310.201C310.201 29.6299 313.254 22.6101 307.455 17.4537C301.656 12.2974 291.575 20.1787 287.914 12.2655Z" stroke="#263238" stroke-miterlimit="10" stroke-linecap="round"/>
<path d="M43.466 28.7811C43.466 28.7811 42.0259 24.9521 38.6656 24.2374C35.3052 23.5226 33.9867 25.552 33.2634 27.2304C32.5401 28.9087 30.3895 27.5877 28.5845 27.3452C26.7795 27.1027 25.8258 28.9023 25.4674 30.217C25.109 31.5316 22.8303 29.6171 20.7885 30.8168C18.7467 32.0166 18.3883 33.5673 17.9082 33.9247C17.4282 34.282 16.1096 33.6886 15.3864 34.6458L14.6695 35.603H52.2221C52.5527 34.7904 52.6262 33.8965 52.4329 33.0411C52.2395 32.1856 51.7886 31.4096 51.1404 30.8168C48.8618 28.7811 44.9062 31.8953 43.466 28.7811Z" stroke="#263238" stroke-miterlimit="10" stroke-linecap="round"/>
<path d="M316.825 45.0925C316.825 45.0925 315.385 41.2635 312.025 40.5424C308.664 39.8213 307.346 41.857 306.623 43.5354C305.899 45.2138 303.742 43.8928 301.944 43.6566C300.145 43.4205 299.185 45.2074 298.827 46.522C298.468 47.8366 296.183 45.9285 294.148 47.1219C292.112 48.3152 291.747 49.8723 291.267 50.2361C290.787 50.5998 289.469 49.9936 288.746 50.9508L288.029 51.9081H325.581C325.91 51.0952 325.983 50.2018 325.789 49.3467C325.596 48.4917 325.146 47.7156 324.5 47.1219C322.208 45.0925 318.253 48.2004 316.825 45.0925Z" stroke="#263238" stroke-miterlimit="10" stroke-linecap="round"/>
<path d="M-9.19214 173.076H9.741V115.852H26.4147V89.1129H57.9635V142.119H66.0796V39.3171H100.784V84.4224H122.418V45.4882H159.376V133.204H209.857V80.7913H242.827V133.676H263.041V139.77H275.663V98.8768H284.22V139.77H290.083V96.6177H299.543V137.894H311.263V68.4748H332.449V113.976H344.617V45.9604H374.367V183.395" stroke="#263238" stroke-miterlimit="10" stroke-linecap="round"/>
<path d="M18.2987 125.233H14.6951V129.923H18.2987V125.233Z" stroke="#263238" stroke-miterlimit="10" stroke-linecap="round"/>
<path d="M24.1617 125.233H20.5581V129.923H24.1617V125.233Z" stroke="#263238" stroke-miterlimit="10" stroke-linecap="round"/>
<path d="M30.0183 125.233H26.4147V129.923H30.0183V125.233Z" stroke="#263238" stroke-miterlimit="10" stroke-linecap="round"/>
<path d="M35.8813 125.233H32.2777V129.923H35.8813V125.233Z" stroke="#263238" stroke-miterlimit="10" stroke-linecap="round"/>
<path d="M41.7379 125.233H38.1343V129.923H41.7379V125.233Z" stroke="#263238" stroke-miterlimit="10" stroke-linecap="round"/>
<path d="M47.5945 125.233H43.9909V129.923H47.5945V125.233Z" stroke="#263238" stroke-miterlimit="10" stroke-linecap="round"/>
<path d="M75.0917 90.5233H71.4881V95.2137H75.0917V90.5233Z" stroke="#263238" stroke-miterlimit="10" stroke-linecap="round"/>
<path d="M80.9483 90.5233H77.3447V95.2137H80.9483V90.5233Z" stroke="#263238" stroke-miterlimit="10" stroke-linecap="round"/>
<path d="M86.8113 90.5233H83.2077V95.2137H86.8113V90.5233Z" stroke="#263238" stroke-miterlimit="10" stroke-linecap="round"/>
<path d="M92.6679 90.5233H89.0643V95.2137H92.6679V90.5233Z" stroke="#263238" stroke-miterlimit="10" stroke-linecap="round"/>
<path d="M75.0917 82.074H71.4881V86.7645H75.0917V82.074Z" stroke="#263238" stroke-miterlimit="10" stroke-linecap="round"/>
<path d="M80.9483 82.074H77.3447V86.7645H80.9483V82.074Z" stroke="#263238" stroke-miterlimit="10" stroke-linecap="round"/>
<path d="M86.8113 82.074H83.2077V86.7645H86.8113V82.074Z" stroke="#263238" stroke-miterlimit="10" stroke-linecap="round"/>
<path d="M92.6679 82.074H89.0643V86.7645H92.6679V82.074Z" stroke="#263238" stroke-miterlimit="10" stroke-linecap="round"/>
<path d="M75.0917 73.6311H71.4881V78.3216H75.0917V73.6311Z" stroke="#263238" stroke-miterlimit="10" stroke-linecap="round"/>
<path d="M80.9483 73.6311H77.3447V78.3216H80.9483V73.6311Z" stroke="#263238" stroke-miterlimit="10" stroke-linecap="round"/>
<path d="M86.8113 73.6311H83.2077V78.3216H86.8113V73.6311Z" stroke="#263238" stroke-miterlimit="10" stroke-linecap="round"/>
<path d="M92.6679 73.6311H89.0643V78.3216H92.6679V73.6311Z" stroke="#263238" stroke-miterlimit="10" stroke-linecap="round"/>
<path d="M75.0917 65.1882H71.4881V69.8787H75.0917V65.1882Z" stroke="#263238" stroke-miterlimit="10" stroke-linecap="round"/>
<path d="M80.9483 65.1882H77.3447V69.8787H80.9483V65.1882Z" stroke="#263238" stroke-miterlimit="10" stroke-linecap="round"/>
<path d="M86.8113 65.1882H83.2077V69.8787H86.8113V65.1882Z" stroke="#263238" stroke-miterlimit="10" stroke-linecap="round"/>
<path d="M92.6679 65.1882H89.0643V69.8787H92.6679V65.1882Z" stroke="#263238" stroke-miterlimit="10" stroke-linecap="round"/>
<path d="M75.0917 56.7454H71.4881V61.4359H75.0917V56.7454Z" stroke="#263238" stroke-miterlimit="10" stroke-linecap="round"/>
<path d="M80.9483 56.7454H77.3447V61.4359H80.9483V56.7454Z" stroke="#263238" stroke-miterlimit="10" stroke-linecap="round"/>
<path d="M86.8113 56.7454H83.2077V61.4359H86.8113V56.7454Z" stroke="#263238" stroke-miterlimit="10" stroke-linecap="round"/>
<path d="M92.6679 56.7454H89.0643V61.4359H92.6679V56.7454Z" stroke="#263238" stroke-miterlimit="10" stroke-linecap="round"/>
<path d="M98.5245 90.5233H94.9209V95.2137H98.5245V90.5233Z" stroke="#263238" stroke-miterlimit="10" stroke-linecap="round"/>
<path d="M104.388 90.5233H100.784V95.2137H104.388V90.5233Z" stroke="#263238" stroke-miterlimit="10" stroke-linecap="round"/>
<path d="M75.0917 99.9042H71.4881V104.595H75.0917V99.9042Z" stroke="#263238" stroke-miterlimit="10" stroke-linecap="round"/>
<path d="M80.9483 99.9042H77.3447V104.595H80.9483V99.9042Z" stroke="#263238" stroke-miterlimit="10" stroke-linecap="round"/>
<path d="M86.8113 99.9042H83.2077V104.595H86.8113V99.9042Z" stroke="#263238" stroke-miterlimit="10" stroke-linecap="round"/>
<path d="M92.6679 99.9042H89.0643V104.595H92.6679V99.9042Z" stroke="#263238" stroke-miterlimit="10" stroke-linecap="round"/>
<path d="M98.5245 99.9042H94.9209V104.595H98.5245V99.9042Z" stroke="#263238" stroke-miterlimit="10" stroke-linecap="round"/>
<path d="M104.388 99.9042H100.784V104.595H104.388V99.9042Z" stroke="#263238" stroke-miterlimit="10" stroke-linecap="round"/>
<path d="M18.2987 135.08H14.6951V139.77H18.2987V135.08Z" stroke="#263238" stroke-miterlimit="10" stroke-linecap="round"/>
<path d="M24.1617 135.08H20.5581V139.77H24.1617V135.08Z" stroke="#263238" stroke-miterlimit="10" stroke-linecap="round"/>
<path d="M30.0183 135.08H26.4147V139.77H30.0183V135.08Z" stroke="#263238" stroke-miterlimit="10" stroke-linecap="round"/>
<path d="M35.8813 135.08H32.2777V139.77H35.8813V135.08Z" stroke="#263238" stroke-miterlimit="10" stroke-linecap="round"/>
<path d="M41.7379 135.08H38.1343V139.77H41.7379V135.08Z" stroke="#263238" stroke-miterlimit="10" stroke-linecap="round"/>
<path d="M47.5945 135.08H43.9909V139.77H47.5945V135.08Z" stroke="#263238" stroke-miterlimit="10" stroke-linecap="round"/>
<path d="M18.2987 144.933H14.6951V149.623H18.2987V144.933Z" stroke="#263238" stroke-miterlimit="10" stroke-linecap="round"/>
<path d="M24.1617 144.933H20.5581V149.623H24.1617V144.933Z" stroke="#263238" stroke-miterlimit="10" stroke-linecap="round"/>
<path d="M30.0183 144.933H26.4147V149.623H30.0183V144.933Z" stroke="#263238" stroke-miterlimit="10" stroke-linecap="round"/>
<path d="M35.8813 144.933H32.2777V149.623H35.8813V144.933Z" stroke="#263238" stroke-miterlimit="10" stroke-linecap="round"/>
<path d="M41.7379 144.933H38.1343V149.623H41.7379V144.933Z" stroke="#263238" stroke-miterlimit="10" stroke-linecap="round"/>
<path d="M47.5945 144.933H43.9909V149.623H47.5945V144.933Z" stroke="#263238" stroke-miterlimit="10" stroke-linecap="round"/>
<path d="M18.2987 154.78H14.6951V159.47H18.2987V154.78Z" stroke="#263238" stroke-miterlimit="10" stroke-linecap="round"/>
<path d="M24.1617 154.78H20.5581V159.47H24.1617V154.78Z" stroke="#263238" stroke-miterlimit="10" stroke-linecap="round"/>
<path d="M30.0183 154.78H26.4147V159.47H30.0183V154.78Z" stroke="#263238" stroke-miterlimit="10" stroke-linecap="round"/>
<path d="M35.8813 154.78H32.2777V159.47H35.8813V154.78Z" stroke="#263238" stroke-miterlimit="10" stroke-linecap="round"/>
<path d="M41.7379 154.78H38.1343V159.47H41.7379V154.78Z" stroke="#263238" stroke-miterlimit="10" stroke-linecap="round"/>
<path d="M47.5945 154.78H43.9909V159.47H47.5945V154.78Z" stroke="#263238" stroke-miterlimit="10" stroke-linecap="round"/>
<path d="M18.2987 164.633H14.6951V169.324H18.2987V164.633Z" stroke="#263238" stroke-miterlimit="10" stroke-linecap="round"/>
<path d="M24.1617 164.633H20.5581V169.324H24.1617V164.633Z" stroke="#263238" stroke-miterlimit="10" stroke-linecap="round"/>
<path d="M30.0183 164.633H26.4147V169.324H30.0183V164.633Z" stroke="#263238" stroke-miterlimit="10" stroke-linecap="round"/>
<path d="M35.8813 164.633H32.2777V169.324H35.8813V164.633Z" stroke="#263238" stroke-miterlimit="10" stroke-linecap="round"/>
<path d="M41.7379 164.633H38.1343V169.324H41.7379V164.633Z" stroke="#263238" stroke-miterlimit="10" stroke-linecap="round"/>
<path d="M47.5945 164.633H43.9909V169.324H47.5945V164.633Z" stroke="#263238" stroke-miterlimit="10" stroke-linecap="round"/>
<path d="M359.492 55.8073H355.888V60.4977H359.492V55.8073Z" stroke="#263238" stroke-miterlimit="10" stroke-linecap="round"/>
<path d="M365.349 55.8073H361.745V60.4977H365.349V55.8073Z" stroke="#263238" stroke-miterlimit="10" stroke-linecap="round"/>
<path d="M371.205 55.8073H367.602V60.4977H371.205V55.8073Z" stroke="#263238" stroke-miterlimit="10" stroke-linecap="round"/>
<path d="M359.492 67.5367H355.888V72.2272H359.492V67.5367Z" stroke="#263238" stroke-miterlimit="10" stroke-linecap="round"/>
<path d="M365.349 67.5367H361.745V72.2272H365.349V67.5367Z" stroke="#263238" stroke-miterlimit="10" stroke-linecap="round"/>
<path d="M371.205 67.5367H367.602V72.2272H371.205V67.5367Z" stroke="#263238" stroke-miterlimit="10" stroke-linecap="round"/>
<path d="M359.492 79.2597H355.888V83.9502H359.492V79.2597Z" stroke="#263238" stroke-miterlimit="10" stroke-linecap="round"/>
<path d="M365.349 79.2597H361.745V83.9502H365.349V79.2597Z" stroke="#263238" stroke-miterlimit="10" stroke-linecap="round"/>
<path d="M371.205 79.2597H367.602V83.9502H371.205V79.2597Z" stroke="#263238" stroke-miterlimit="10" stroke-linecap="round"/>
<path d="M359.492 90.9891H355.888V95.6796H359.492V90.9891Z" stroke="#263238" stroke-miterlimit="10" stroke-linecap="round"/>
<path d="M365.349 90.9891H361.745V95.6796H365.349V90.9891Z" stroke="#263238" stroke-miterlimit="10" stroke-linecap="round"/>
<path d="M371.205 90.9891H367.602V95.6796H371.205V90.9891Z" stroke="#263238" stroke-miterlimit="10" stroke-linecap="round"/>
<path d="M359.492 102.719H355.888V107.409H359.492V102.719Z" stroke="#263238" stroke-miterlimit="10" stroke-linecap="round"/>
<path d="M365.349 102.719H361.745V107.409H365.349V102.719Z" stroke="#263238" stroke-miterlimit="10" stroke-linecap="round"/>
<path d="M371.205 102.719H367.602V107.409H371.205V102.719Z" stroke="#263238" stroke-miterlimit="10" stroke-linecap="round"/>
<path d="M359.492 114.442H355.888V119.132H359.492V114.442Z" stroke="#263238" stroke-miterlimit="10" stroke-linecap="round"/>
<path d="M365.349 114.442H361.745V119.132H365.349V114.442Z" stroke="#263238" stroke-miterlimit="10" stroke-linecap="round"/>
<path d="M371.205 114.442H367.602V119.132H371.205V114.442Z" stroke="#263238" stroke-miterlimit="10" stroke-linecap="round"/>
<path d="M359.492 126.171H355.888V130.862H359.492V126.171Z" stroke="#263238" stroke-miterlimit="10" stroke-linecap="round"/>
<path d="M365.349 126.171H361.745V130.862H365.349V126.171Z" stroke="#263238" stroke-miterlimit="10" stroke-linecap="round"/>
<path d="M371.205 126.171H367.602V130.862H371.205V126.171Z" stroke="#263238" stroke-miterlimit="10" stroke-linecap="round"/>
<path d="M359.492 137.894H355.888V142.585H359.492V137.894Z" stroke="#263238" stroke-miterlimit="10" stroke-linecap="round"/>
<path d="M365.349 137.894H361.745V142.585H365.349V137.894Z" stroke="#263238" stroke-miterlimit="10" stroke-linecap="round"/>
<path d="M371.205 137.894H367.602V142.585H371.205V137.894Z" stroke="#263238" stroke-miterlimit="10" stroke-linecap="round"/>
<path d="M359.492 149.623H355.888V154.314H359.492V149.623Z" stroke="#263238" stroke-miterlimit="10" stroke-linecap="round"/>
<path d="M365.349 149.623H361.745V154.314H365.349V149.623Z" stroke="#263238" stroke-miterlimit="10" stroke-linecap="round"/>
<path d="M321.126 79.2597H317.523V83.9502H321.126V79.2597Z" stroke="#263238" stroke-miterlimit="10" stroke-linecap="round"/>
<path d="M326.989 79.2597H323.386V83.9502H326.989V79.2597Z" stroke="#263238" stroke-miterlimit="10" stroke-linecap="round"/>
<path d="M321.126 90.9891H317.523V95.6796H321.126V90.9891Z" stroke="#263238" stroke-miterlimit="10" stroke-linecap="round"/>
<path d="M326.989 90.9891H323.386V95.6796H326.989V90.9891Z" stroke="#263238" stroke-miterlimit="10" stroke-linecap="round"/>
<path d="M321.126 102.719H317.523V107.409H321.126V102.719Z" stroke="#263238" stroke-miterlimit="10" stroke-linecap="round"/>
<path d="M326.989 102.719H323.386V107.409H326.989V102.719Z" stroke="#263238" stroke-miterlimit="10" stroke-linecap="round"/>
<path d="M321.126 114.442H317.523V119.132H321.126V114.442Z" stroke="#263238" stroke-miterlimit="10" stroke-linecap="round"/>
<path d="M326.989 114.442H323.386V119.132H326.989V114.442Z" stroke="#263238" stroke-miterlimit="10" stroke-linecap="round"/>
<path d="M321.126 126.171H317.523V130.862H321.126V126.171Z" stroke="#263238" stroke-miterlimit="10" stroke-linecap="round"/>
<path d="M326.989 126.171H323.386V130.862H326.989V126.171Z" stroke="#263238" stroke-miterlimit="10" stroke-linecap="round"/>
<path d="M321.126 137.894H317.523V142.585H321.126V137.894Z" stroke="#263238" stroke-miterlimit="10" stroke-linecap="round"/>
<path d="M326.989 137.894H323.386V142.585H326.989V137.894Z" stroke="#263238" stroke-miterlimit="10" stroke-linecap="round"/>
<path d="M321.126 149.623H317.523V154.314H321.126V149.623Z" stroke="#263238" stroke-miterlimit="10" stroke-linecap="round"/>
<path d="M326.989 149.623H323.386V154.314H326.989V149.623Z" stroke="#263238" stroke-miterlimit="10" stroke-linecap="round"/>
<path d="M217.865 90.9891H214.261V95.6796H217.865V90.9891Z" stroke="#263238" stroke-miterlimit="10" stroke-linecap="round"/>
<path d="M223.721 90.9891H220.118V95.6796H223.721V90.9891Z" stroke="#263238" stroke-miterlimit="10" stroke-linecap="round"/>
<path d="M217.865 102.719H214.261V107.409H217.865V102.719Z" stroke="#263238" stroke-miterlimit="10" stroke-linecap="round"/>
<path d="M223.721 102.719H220.118V107.409H223.721V102.719Z" stroke="#263238" stroke-miterlimit="10" stroke-linecap="round"/>
<path d="M217.865 114.442H214.261V119.132H217.865V114.442Z" stroke="#263238" stroke-miterlimit="10" stroke-linecap="round"/>
<path d="M223.721 114.442H220.118V119.132H223.721V114.442Z" stroke="#263238" stroke-miterlimit="10" stroke-linecap="round"/>
<path d="M217.865 126.171H214.261V130.862H217.865V126.171Z" stroke="#263238" stroke-miterlimit="10" stroke-linecap="round"/>
<path d="M223.721 126.171H220.118V130.862H223.721V126.171Z" stroke="#263238" stroke-miterlimit="10" stroke-linecap="round"/>
<path d="M217.865 137.894H214.261V142.585H217.865V137.894Z" stroke="#263238" stroke-miterlimit="10" stroke-linecap="round"/>
<path d="M223.721 137.894H220.118V142.585H223.721V137.894Z" stroke="#263238" stroke-miterlimit="10" stroke-linecap="round"/>
<path d="M217.865 149.623H214.261V154.314H217.865V149.623Z" stroke="#263238" stroke-miterlimit="10" stroke-linecap="round"/>
<path d="M223.721 149.623H220.118V154.314H223.721V149.623Z" stroke="#263238" stroke-miterlimit="10" stroke-linecap="round"/>
<path d="M231.133 90.9891H227.53V95.6796H231.133V90.9891Z" stroke="#263238" stroke-miterlimit="10" stroke-linecap="round"/>
<path d="M236.99 90.9891H233.386V95.6796H236.99V90.9891Z" stroke="#263238" stroke-miterlimit="10" stroke-linecap="round"/>
<path d="M231.133 102.719H227.53V107.409H231.133V102.719Z" stroke="#263238" stroke-miterlimit="10" stroke-linecap="round"/>
<path d="M236.99 102.719H233.386V107.409H236.99V102.719Z" stroke="#263238" stroke-miterlimit="10" stroke-linecap="round"/>
<path d="M231.133 114.442H227.53V119.132H231.133V114.442Z" stroke="#263238" stroke-miterlimit="10" stroke-linecap="round"/>
<path d="M236.99 114.442H233.386V119.132H236.99V114.442Z" stroke="#263238" stroke-miterlimit="10" stroke-linecap="round"/>
<path d="M231.133 126.171H227.53V130.862H231.133V126.171Z" stroke="#263238" stroke-miterlimit="10" stroke-linecap="round"/>
<path d="M236.99 126.171H233.386V130.862H236.99V126.171Z" stroke="#263238" stroke-miterlimit="10" stroke-linecap="round"/>
<path d="M231.133 137.894H227.53V142.585H231.133V137.894Z" stroke="#263238" stroke-miterlimit="10" stroke-linecap="round"/>
<path d="M236.99 137.894H233.386V142.585H236.99V137.894Z" stroke="#263238" stroke-miterlimit="10" stroke-linecap="round"/>
<path d="M231.133 149.623H227.53V154.314H231.133V149.623Z" stroke="#263238" stroke-miterlimit="10" stroke-linecap="round"/>
<path d="M236.99 149.623H233.386V154.314H236.99V149.623Z" stroke="#263238" stroke-miterlimit="10" stroke-linecap="round"/>
<path d="M139.028 55.8073H135.424V60.4977H139.028V55.8073Z" stroke="#263238" stroke-miterlimit="10" stroke-linecap="round"/>
<path d="M144.891 55.8073H141.287V60.4977H144.891V55.8073Z" stroke="#263238" stroke-miterlimit="10" stroke-linecap="round"/>
<path d="M139.028 67.5367H135.424V72.2272H139.028V67.5367Z" stroke="#263238" stroke-miterlimit="10" stroke-linecap="round"/>
<path d="M144.891 67.5367H141.287V72.2272H144.891V67.5367Z" stroke="#263238" stroke-miterlimit="10" stroke-linecap="round"/>
<path d="M139.028 79.2597H135.424V83.9502H139.028V79.2597Z" stroke="#263238" stroke-miterlimit="10" stroke-linecap="round"/>
<path d="M144.891 79.2597H141.287V83.9502H144.891V79.2597Z" stroke="#263238" stroke-miterlimit="10" stroke-linecap="round"/>
<path d="M139.028 90.9891H135.424V95.6796H139.028V90.9891Z" stroke="#263238" stroke-miterlimit="10" stroke-linecap="round"/>
<path d="M144.891 90.9891H141.287V95.6796H144.891V90.9891Z" stroke="#263238" stroke-miterlimit="10" stroke-linecap="round"/>
<path d="M139.028 102.719H135.424V107.409H139.028V102.719Z" stroke="#263238" stroke-miterlimit="10" stroke-linecap="round"/>
<path d="M144.891 102.719H141.287V107.409H144.891V102.719Z" stroke="#263238" stroke-miterlimit="10" stroke-linecap="round"/>
<path d="M139.028 114.442H135.424V119.132H139.028V114.442Z" stroke="#263238" stroke-miterlimit="10" stroke-linecap="round"/>
<path d="M144.891 114.442H141.287V119.132H144.891V114.442Z" stroke="#263238" stroke-miterlimit="10" stroke-linecap="round"/>
<path d="M139.028 126.171H135.424V130.862H139.028V126.171Z" stroke="#263238" stroke-miterlimit="10" stroke-linecap="round"/>
<path d="M144.891 126.171H141.287V130.862H144.891V126.171Z" stroke="#263238" stroke-miterlimit="10" stroke-linecap="round"/>
<path d="M139.028 137.894H135.424V142.585H139.028V137.894Z" stroke="#263238" stroke-miterlimit="10" stroke-linecap="round"/>
<path d="M144.891 137.894H141.287V142.585H144.891V137.894Z" stroke="#263238" stroke-miterlimit="10" stroke-linecap="round"/>
<path d="M139.028 149.623H135.424V154.314H139.028V149.623Z" stroke="#263238" stroke-miterlimit="10" stroke-linecap="round"/>
<path d="M144.891 149.623H141.287V154.314H144.891V149.623Z" stroke="#263238" stroke-miterlimit="10" stroke-linecap="round"/>
<path d="M371.205 149.623H367.602V154.314H371.205V149.623Z" stroke="#263238" stroke-miterlimit="10" stroke-linecap="round"/>
<path d="M358.602 225.667C358.602 243.567 348.534 244.92 336.117 244.92C323.7 244.92 313.625 243.567 313.625 225.667C313.625 207.766 323.693 170.345 336.117 170.345C348.54 170.345 358.602 207.766 358.602 225.667Z" fill="#92E3A9"/>
<path opacity="0.58" d="M358.602 225.667C358.602 243.567 348.534 244.92 336.117 244.92C323.7 244.92 313.625 243.567 313.625 225.667C313.625 207.766 323.693 170.345 336.117 170.345C348.54 170.345 358.602 207.766 358.602 225.667Z" fill="white"/>
<path d="M343.714 233.791L339.996 234.046L349.686 227.537L342.767 231.021L343.714 228.296L340.552 232.138L336.84 234.008L336.546 221.155L338.511 216.394L336.501 219.068L336.328 211.615L342.492 203.421L336.283 209.757L335.912 193.35L335.579 203.854L331.624 199.458L335.515 205.871L334.99 222.502L331.547 220.255L328.41 214.716L329.665 219.036L323.514 215.022L334.914 224.824L333.185 279.419H337.883L336.891 236.133L337.973 235.405L343.714 233.791Z" fill="#263238"/>
<path d="M414 192.999C414 221.787 397.806 223.957 377.836 223.957C357.866 223.957 341.673 221.787 341.673 192.999C341.673 164.212 357.866 104.033 377.836 104.033C397.806 104.033 414 164.199 414 192.999Z" fill="#92E3A9"/>
<path opacity="0.31" d="M414 192.999C414 221.787 397.806 223.957 377.836 223.957C357.866 223.957 341.673 221.787 341.673 192.999C341.673 164.212 357.866 104.033 377.836 104.033C397.806 104.033 414 164.199 414 192.999Z" fill="white"/>
<path d="M390.062 206.05L384.083 206.458L399.663 195.986L388.532 201.595L390.062 197.218L384.973 203.389L379.008 206.394L378.534 185.724L381.696 178.073L378.457 182.374L378.182 170.389L388.09 157.218L378.112 167.403L377.51 141.021L376.972 157.907L370.616 150.836L376.87 161.149L376.025 187.894L370.488 184.288L365.451 175.373L367.474 182.317L357.572 175.865L375.91 191.634L373.132 279.419H380.678L379.084 209.815L380.832 208.647L390.062 206.05Z" fill="#263238"/>
<path d="M16.1544 225.667C16.1544 243.567 26.2226 244.92 38.6463 244.92C51.07 244.92 61.1318 243.567 61.1318 225.667C61.1318 207.766 51.0636 170.345 38.6463 170.345C26.2291 170.345 16.1544 207.766 16.1544 225.667Z" fill="#92E3A9"/>
<path opacity="0.58" d="M16.1544 225.667C16.1544 243.567 26.2226 244.92 38.6463 244.92C51.07 244.92 61.1318 243.567 61.1318 225.667C61.1318 207.766 51.0636 170.345 38.6463 170.345C26.2291 170.345 16.1544 207.766 16.1544 225.667Z" fill="white"/>
<path d="M31.0424 233.791L34.7611 234.046L25.0706 227.537L31.9897 231.021L31.0424 228.296L34.2043 232.138L37.9167 234.008L38.2111 221.155L36.2461 216.394L38.2559 219.068L38.4287 211.615L32.2649 203.421L38.4671 209.757L38.8448 193.35L39.1776 203.854L43.1332 199.458L39.2416 205.871L39.7665 222.502L43.21 220.255L46.3463 214.716L45.0854 219.036L51.2428 215.022L39.8433 224.824L41.5714 279.419H36.8734L37.8655 236.133L36.7774 235.405L31.0424 233.791Z" fill="#263238"/>
<path d="M-39 193.274C-39 221.991 -22.8639 224.129 -2.95791 224.129C16.9481 224.129 33.0842 221.965 33.0842 193.274C33.0842 164.582 16.9481 104.607 -2.95791 104.607C-22.8639 104.607 -39 164.582 -39 193.274Z" fill="#92E3A9"/>
<path opacity="0.31" d="M-39 193.274C-39 221.991 -22.8639 224.129 -2.95791 224.129C16.9481 224.129 33.0842 221.965 33.0842 193.274C33.0842 164.582 16.9481 104.607 -2.95791 104.607C-22.8639 104.607 -39 164.582 -39 193.274Z" fill="white"/>
<path d="M-15.1448 206.292L-9.18575 206.701L-24.7137 196.267L-13.6214 201.857L-15.1448 197.486L-10.0754 203.644L-4.12924 206.643L-3.65559 186.037L-6.80471 178.411L-3.57878 182.699L-3.30355 170.753L-13.1798 157.626L-3.23314 167.773L-2.63148 141.481L-2.10023 158.309L4.23642 151.264L-1.99782 161.544L-1.15293 188.2L4.35803 184.601L9.38254 175.724L7.37274 182.642L17.2362 176.209L-1.03772 191.927L1.72736 279.419H-5.79341L-4.20604 210.051L-5.94062 208.883L-15.1448 206.292Z" fill="#263238"/>
<path d="M197.05 114.665H177.329C175.919 114.665 174.776 115.805 174.776 117.211V122.08C174.776 123.487 175.919 124.627 177.329 124.627H197.05C198.46 124.627 199.604 123.487 199.604 122.08V117.211C199.604 115.805 198.46 114.665 197.05 114.665Z" fill="#263238" stroke="#263238" stroke-linecap="round" stroke-linejoin="round"/>
<path d="M187.487 109.834H185.068V117.384H187.487V109.834Z" fill="#263238" stroke="#263238" stroke-linecap="round" stroke-linejoin="round"/>
<path d="M272.533 163.944L263.853 157.262L251.75 112.68L231.613 110.204L240.325 142.47H138.484L147.208 110.172L127.071 112.648L114.782 157.9L105.604 163.944H272.533ZM234.129 112.648L249.298 113.746L258.97 153.433L244.722 142.412H243.954L234.129 112.648ZM129.542 113.746L144.712 112.648L134.093 144.748L134.451 144.869L119.525 154.748L129.542 113.746Z" fill="#263238" stroke="#263238" stroke-linecap="round" stroke-linejoin="round"/>
<path d="M169.041 165.98L167.549 144.748C167.373 142.326 166.286 140.06 164.506 138.404C162.726 136.747 160.383 135.822 157.948 135.814H138.343C135.908 135.822 133.565 136.747 131.785 138.404C130.005 140.06 128.918 142.326 128.742 144.748L127.251 165.98H169.041Z" fill="#787878" stroke="#263238" stroke-linecap="round" stroke-linejoin="round"/>
<path d="M246.213 165.98L244.722 144.748C244.544 142.32 243.451 140.05 241.663 138.392C239.875 136.735 237.524 135.814 235.083 135.814H215.516C213.075 135.814 210.725 136.735 208.938 138.393C207.15 140.05 206.059 142.321 205.883 144.748L204.385 165.98H246.213Z" fill="#787878" stroke="#263238" stroke-linecap="round" stroke-linejoin="round"/>
<path d="M143.182 120.109C143.182 120.109 139.431 117.435 137.108 118.685C134.784 119.936 129.958 133.472 129.241 136.503C128.524 139.534 132.998 142.029 136.032 142.916C139.066 143.803 145.147 141.851 146.581 140.421C148.014 138.992 143.182 120.109 143.182 120.109Z" fill="#263238" stroke="#263238" stroke-miterlimit="10"/>
<path d="M168.535 166.548C168.304 165.833 168.17 165.386 168.17 165.386C168.17 165.386 165.565 151.481 164.918 150.37C164.272 149.26 156.169 145.641 156.169 145.641L142.132 144.901C142.132 144.901 131.629 150.006 131.533 150.645C131.481 150.989 129.472 159.056 127.596 166.548H168.535Z" fill="#B2B2B2" stroke="#263238" stroke-miterlimit="10"/>
<path d="M135.591 156.139C136.36 158.151 136.938 160.229 137.319 162.348" stroke="#263238" stroke-miterlimit="10"/>
<path d="M163.133 157.109C162.685 158.634 161.552 160.664 161.891 162.297" stroke="#263238" stroke-miterlimit="10"/>
<path d="M149.954 115.341C149.954 115.341 141.595 117.652 139.277 122.125C136.96 126.599 136.8 127.607 138.113 129.783C139.425 131.959 142.676 135.801 145.697 137.345C148.718 138.89 158.307 136.65 158.307 136.65C158.307 136.65 161.245 135.335 162.147 133.025C163.05 130.715 165.168 127.466 163.773 123.995C162.377 120.523 156.194 115.743 154.261 115.201C152.834 114.911 151.359 114.959 149.954 115.341Z" fill="#263238" stroke="#263238" stroke-miterlimit="10"/>
<path d="M156.034 121.193C156.034 121.193 151.868 123.746 149.73 125.239C148.267 126.215 146.687 127.002 145.025 127.581C144.464 127.856 144.013 128.31 143.742 128.871C143.472 129.433 143.398 130.069 143.534 130.676C143.956 132.91 144.769 140.638 144.769 140.638L143.316 143.778L149.512 150.593L154.428 144.212L154.965 140.906C154.965 140.906 159.446 138.137 159.561 137.498C159.676 136.86 160.95 127.486 160.841 126.528C160.732 125.571 156.034 121.193 156.034 121.193Z" fill="white" stroke="#263238" stroke-miterlimit="10"/>
<path d="M156.758 127.76C156.758 127.76 156.527 129.84 156.527 130.147C156.527 130.453 158.383 132.061 157.686 132.699C157.057 133.157 156.35 133.497 155.599 133.701" stroke="#263238" stroke-linecap="round" stroke-linejoin="round"/>
<path d="M155.83 135.629C155.83 135.629 155.055 136.477 153.353 134.703" stroke="#263238" stroke-linecap="round" stroke-linejoin="round"/>
<path d="M154.965 140.9C154.114 140.825 153.281 140.61 152.501 140.262C151.81 139.796 149.794 138.258 149.794 138.258L153.743 145.041L154.428 144.212L154.965 140.9Z" fill="#263238" stroke="#263238" stroke-linecap="round" stroke-linejoin="round"/>
<path d="M145.851 129.611C145.851 129.611 144.379 125.214 142.651 127.696C140.922 130.179 143.662 133.631 144.974 133.555" fill="white"/>
<path d="M145.851 129.611C145.851 129.611 144.379 125.214 142.651 127.696C140.922 130.179 143.662 133.631 144.974 133.555" stroke="#263238" stroke-miterlimit="10"/>
<path d="M152.93 130.306C153.294 130.306 153.589 129.892 153.589 129.381C153.589 128.87 153.294 128.456 152.93 128.456C152.566 128.456 152.271 128.87 152.271 129.381C152.271 129.892 152.566 130.306 152.93 130.306Z" fill="#263238"/>
<path d="M158.729 130.306C159.093 130.306 159.388 129.892 159.388 129.381C159.388 128.87 159.093 128.456 158.729 128.456C158.365 128.456 158.07 128.87 158.07 129.381C158.07 129.892 158.365 130.306 158.729 130.306Z" fill="#263238"/>
<path d="M151.189 127.371C151.623 126.973 152.176 126.727 152.763 126.672C153.35 126.617 153.939 126.755 154.441 127.064" stroke="#263238" stroke-linecap="round" stroke-linejoin="round"/>
<path d="M157.449 126.911C157.449 126.911 159.536 126.063 160.009 127.683" stroke="#263238" stroke-linecap="round" stroke-linejoin="round"/>
<path d="M143.297 141.41L148.712 148.277L145 152.291L140.82 144.805L143.297 141.41Z" fill="white" stroke="#263238" stroke-miterlimit="10"/>
<path d="M125.887 114.946L151.093 165.718H144.308L123.999 116.496" fill="#263238"/>
<path d="M125.887 114.946L151.093 165.718H144.308L123.999 116.496" stroke="#263238" stroke-linecap="round" stroke-linejoin="round"/>
<path d="M148.712 148.277L149.512 150.6L147.63 149.668L148.712 148.277Z" fill="white" stroke="#263238" stroke-miterlimit="10"/>
<path d="M150.645 147.122L153.276 152.291L157.302 145.501L154.594 143.344L150.645 147.122Z" fill="white" stroke="#263238" stroke-miterlimit="10"/>
<path d="M150.645 147.122L149.512 150.6L151.419 148.743L150.645 147.122Z" fill="white" stroke="#263238" stroke-miterlimit="10"/>
<path d="M259.552 170.574C259.994 169.598 262.228 164.512 261.428 163.159C256.87 155.501 255.533 160.606 253.907 156.777C251.167 150.357 248.857 145.884 247.871 145.214C245.951 143.937 233.463 141.519 233.463 141.519L218.153 141.123C218.153 141.123 204.942 146.509 204.071 147.709C201.948 150.342 200.197 153.254 198.868 156.362C198.669 156.847 194.106 160.485 193.901 160.97C191.75 166.184 193.747 169.802 194.259 170.587L259.552 170.574Z" fill="white" stroke="#263238" stroke-linecap="round" stroke-linejoin="round"/>
<path d="M208.712 153.114C208.865 158.385 208.865 163.414 209.083 168.602" stroke="#263238" stroke-linecap="round" stroke-linejoin="round"/>
<path d="M208.635 149.949L208.673 151.532" stroke="#263238" stroke-linecap="round" stroke-linejoin="round"/>
<path d="M243.858 152.604C243.551 156.658 243.245 160.7 242.943 164.729C242.849 166.005 242.75 167.296 242.648 168.602" stroke="#263238" stroke-linecap="round" stroke-linejoin="round"/>
<path d="M244.069 149.655L243.992 150.728" stroke="#263238" stroke-linecap="round" stroke-linejoin="round"/>
<path d="M222.313 158.366C222.467 161.174 222.16 166.854 221.923 170.574H232.164C231.671 166.145 230.884 158.985 230.717 157.409C230.48 155.099 227.363 148.475 227.363 148.475L229.36 145.846L225.763 142.1L223.446 145.686L225.283 148.711C225.283 148.711 222.096 153.982 222.313 158.366Z" fill="#92E3A9" stroke="#263238" stroke-linecap="round" stroke-linejoin="round"/>
<path d="M220.156 135.258L219.516 140.038L226.307 143.784L232.381 140.121L232.145 136.611L220.156 135.258Z" fill="white" stroke="#263238" stroke-linecap="round" stroke-linejoin="round"/>
<path d="M219.516 140.038L221.795 141.302L225.661 139.687L221.353 135.393L220.156 135.258L219.516 140.038Z" fill="#263238" stroke="#263238" stroke-linecap="round" stroke-linejoin="round"/>
<path d="M219.683 116.35C219.683 116.35 217.423 117.958 217.257 120.287C217.09 122.616 218.306 133.401 219.599 135.82C220.892 138.239 222.422 140.16 225.571 140.728C228.72 141.296 232.433 138.175 232.836 136.701C233.239 135.227 234.756 127.766 234.756 124.959C234.756 122.151 235.082 118.922 232.497 116.592C229.911 114.263 225.718 113.772 223.702 114.174C221.686 114.576 219.683 116.35 219.683 116.35Z" fill="white" stroke="#263238" stroke-linecap="round" stroke-linejoin="round"/>
<path d="M232.509 116.592C229.949 114.257 225.731 113.772 223.715 114.174C221.699 114.576 219.683 116.35 219.683 116.35C219.683 116.35 217.423 117.958 217.257 120.287C217.281 122.791 217.479 125.29 217.852 127.766C218.018 127.798 218.23 127.722 218.23 127.128C218.23 126.165 217.66 125.603 218.39 124.793C219.305 123.872 220.142 122.877 220.892 121.819C221.295 120.995 221.461 120.076 221.372 119.164C222.66 120.057 224.166 120.586 225.731 120.696C228.637 121.015 231.786 121.015 232.266 121.098C232.746 121.181 232.106 121.659 232.836 122.623C233.566 123.586 233.879 124.071 233.962 124.537C234.046 125.003 234.404 127.281 234.5 127.913C234.653 126.929 234.743 125.935 234.769 124.939C234.769 122.163 235.095 118.922 232.509 116.592Z" fill="#263238" stroke="#263238" stroke-linecap="round" stroke-linejoin="round"/>
<path d="M224.605 131.474C224.605 131.474 225.974 132.361 226.864 132.195C227.501 132.042 228.103 131.769 228.637 131.391" stroke="#263238" stroke-linecap="round" stroke-linejoin="round"/>
<path d="M228.72 125.437C229.271 125.054 229.933 124.862 230.605 124.892C231.276 124.922 231.918 125.172 232.433 125.603" stroke="#263238" stroke-linecap="round" stroke-linejoin="round"/>
<path d="M224.841 125.603C224.841 125.603 222.665 124.154 221.135 125.922" stroke="#263238" stroke-linecap="round" stroke-linejoin="round"/>
<path d="M223.632 127.128C223.632 127.53 223.433 127.856 223.19 127.856C222.947 127.856 222.748 127.53 222.748 127.128C222.748 126.726 222.947 126.407 223.19 126.407C223.433 126.407 223.632 126.726 223.632 127.128Z" fill="#263238"/>
<path d="M230.372 127.128C230.372 127.53 230.173 127.856 229.93 127.856C229.687 127.856 229.482 127.53 229.482 127.128C229.482 126.726 229.68 126.407 229.93 126.407C230.18 126.407 230.372 126.726 230.372 127.128Z" fill="#263238"/>
<path d="M223.152 134.129C225.18 134.919 227.437 134.889 229.444 134.046" stroke="#263238" stroke-linecap="round" stroke-linejoin="round"/>
<path d="M217.743 126.324C217.743 126.324 216.463 125.278 215.97 127.128C215.477 128.979 218.473 131.391 218.473 131.391L217.743 126.324Z" fill="white" stroke="#263238" stroke-linecap="round" stroke-linejoin="round"/>
<path d="M234.692 126.63C234.692 126.63 235.415 125.424 236.062 126.956C236.708 128.488 233.802 131.863 233.802 131.863L234.692 126.63Z" fill="white" stroke="#263238" stroke-linecap="round" stroke-linejoin="round"/>
<path d="M226.666 132.897C226.666 132.897 222.825 132.361 222.019 133.644C221.321 134.761 221.711 137.856 222.352 139.349C223.291 140.059 224.389 140.532 225.552 140.727C227.114 141.008 228.816 140.37 230.186 139.451C230.506 138.998 230.96 137.856 230.794 135.061C230.679 132.833 229.7 132.61 226.666 132.897ZM229.552 138.124C228.655 138.738 227.587 139.055 226.499 139.03C225.859 139.03 223.753 138.973 223.03 138.239C222.307 137.505 221.75 134.742 222.454 133.842C223.158 132.942 226.621 133.318 226.621 133.318C229.347 133.114 230.231 133.267 230.352 134.856C230.57 137.766 229.552 138.117 229.552 138.117V138.124Z" fill="#263238" stroke="#263238" stroke-linecap="round" stroke-linejoin="round"/>
<path d="M227.568 137.715C227.568 138.041 227.101 139.03 226.525 139.03C225.949 139.03 225.482 138.041 225.482 137.715C225.482 137.39 225.949 137.122 226.525 137.122C227.101 137.122 227.568 137.39 227.568 137.715Z" fill="#263238" stroke="#263238" stroke-linecap="round" stroke-linejoin="round"/>
<path d="M226.307 143.784L220.476 149.202L217.359 140.996L219.356 139.4L226.307 143.784Z" fill="white" stroke="#263238" stroke-linecap="round" stroke-linejoin="round"/>
<path d="M226.307 143.784L231.024 149.923L234.142 141.793L232.381 140.121L226.307 143.784Z" fill="white" stroke="#263238" stroke-linecap="round" stroke-linejoin="round"/>
<path d="M251.705 114.946L214.428 165.718H221.206L253.587 116.496" fill="#263238"/>
<path d="M251.705 114.946L214.428 165.718H221.206L253.587 116.496" stroke="#263238" stroke-linecap="round" stroke-linejoin="round"/>
<path d="M191.82 170.574H201.236C202.138 169.528 203.009 168.334 203.239 168.022C203.736 167.341 204.067 166.554 204.206 165.723C204.345 164.892 204.288 164.04 204.039 163.235C203.512 161.635 202.453 160.262 201.037 159.343L198.541 159.84C198.541 159.84 196.435 159.145 194.835 159.84C193.235 160.536 191.136 162.936 190.355 165.724C190.078 166.586 190.07 167.51 190.331 168.376C190.593 169.243 191.112 170.009 191.82 170.574V170.574Z" fill="white" stroke="#263238" stroke-linecap="round" stroke-linejoin="round"/>
<path d="M197.805 160.338C196.051 162.738 194.822 165.865 196.672 168.551" stroke="#263238" stroke-linecap="round" stroke-linejoin="round"/>
<path d="M212.085 156.899C212.085 156.899 213.743 156.49 214.293 156.835C214.932 157.428 215.428 158.156 215.746 158.966C216.021 159.604 215.605 160.134 214.709 160.274C213.813 160.415 212.642 159.241 212.642 159.241L212.085 156.899Z" fill="white" stroke="#263238" stroke-linecap="round" stroke-linejoin="round"/>
<path d="M246.316 160.632L244.984 158.922L231.14 167.581H221.206L207.457 159.777L206.312 161.015L213.071 170.581H238.558L246.316 160.632Z" fill="#263238" stroke="#263238" stroke-linecap="round" stroke-linejoin="round"/>
<path d="M205.633 170.574C205.941 165.331 208.246 160.404 212.078 156.8C215.91 153.196 220.979 151.189 226.246 151.189C231.514 151.189 236.583 153.196 240.415 156.8C244.247 160.404 246.552 165.331 246.86 170.574H250.156C249.855 164.454 247.204 158.684 242.753 154.459C238.302 150.234 232.392 147.878 226.246 147.878C220.101 147.878 214.19 150.234 209.74 154.459C205.289 158.684 202.638 164.454 202.337 170.574H205.633Z" fill="#263238" stroke="#263238" stroke-linecap="round" stroke-linejoin="round"/>
<path d="M203.047 155.252C203.047 155.252 198.836 161.302 198.701 163.44C198.567 165.578 199.527 167.773 201.601 168.117C203.674 168.462 204.014 167.154 204.014 167.154C204.014 167.154 208.494 168.117 208.705 168.117C208.896 168.094 209.075 168.016 209.222 167.894C209.37 167.772 209.479 167.61 209.537 167.428C209.661 167.046 209.822 166.676 210.018 166.324C210.445 166.016 210.799 165.617 211.054 165.156C211.464 164.403 211.605 164.059 211.605 164.059C211.957 163.563 212.257 163.033 212.501 162.476C212.596 162.023 212.644 161.561 212.642 161.098C213.046 160.561 213.27 159.911 213.282 159.241C213.211 158.277 212.245 156.56 210.242 155.456C208.238 154.352 205.415 153.874 204.449 154.014C204.132 154.091 203.839 154.245 203.595 154.46C203.35 154.676 203.163 154.948 203.047 155.252V155.252Z" fill="white" stroke="#263238" stroke-linecap="round" stroke-linejoin="round"/>
<path d="M206.964 157.849L212.635 161.098" stroke="#263238" stroke-linecap="round" stroke-linejoin="round"/>
<path d="M205.672 157.109L206.395 157.524" stroke="#263238" stroke-linecap="round" stroke-linejoin="round"/>
<path d="M204.014 160.134L211.605 164.059" stroke="#263238" stroke-linecap="round" stroke-linejoin="round"/>
<path d="M205.044 164.129L210.017 166.331" stroke="#263238" stroke-linecap="round" stroke-linejoin="round"/>
<path d="M203.322 163.37L204.308 163.803" stroke="#263238" stroke-linecap="round" stroke-linejoin="round"/>
<path d="M251.679 170.574H261.095C261.801 170.013 262.321 169.252 262.586 168.391C262.851 167.53 262.849 166.61 262.58 165.75C261.78 162.961 259.68 160.562 258.099 159.866C256.518 159.17 254.393 159.866 254.393 159.866L251.891 159.368C250.477 160.29 249.419 161.662 248.889 163.261C248.644 164.066 248.588 164.917 248.727 165.747C248.866 166.578 249.195 167.365 249.689 168.047C249.906 168.334 250.771 169.528 251.679 170.574Z" fill="white" stroke="#263238" stroke-linecap="round" stroke-linejoin="round"/>
<path d="M256.838 167.415C256.687 167.817 256.487 168.198 256.243 168.551" stroke="#263238" stroke-linecap="round" stroke-linejoin="round"/>
<path d="M255.11 160.338C256.39 162.1 257.402 164.25 257.114 166.331" stroke="#263238" stroke-linecap="round" stroke-linejoin="round"/>
<path d="M240.824 156.899C240.824 156.899 239.166 156.49 238.616 156.835C237.981 157.43 237.487 158.158 237.169 158.966C236.894 159.604 237.304 160.134 238.206 160.274C239.109 160.415 240.273 159.241 240.273 159.241L240.824 156.899Z" fill="white" stroke="#263238" stroke-linecap="round" stroke-linejoin="round"/>
<path d="M249.868 155.252C249.868 155.252 254.073 161.302 254.214 163.44C254.355 165.578 253.382 167.773 251.315 168.117C249.247 168.462 248.902 167.154 248.902 167.154C248.902 167.154 244.421 168.117 244.203 168.117C244.014 168.093 243.836 168.015 243.689 167.893C243.543 167.771 243.435 167.61 243.378 167.428C243.254 167.046 243.093 166.676 242.898 166.324C242.47 166.016 242.116 165.617 241.861 165.156C241.656 164.801 241.472 164.435 241.31 164.059C240.958 163.563 240.658 163.033 240.414 162.476C240.319 162.023 240.272 161.561 240.273 161.098C239.866 160.563 239.641 159.912 239.633 159.241C239.704 158.277 240.67 156.56 242.667 155.456C244.664 154.352 247.5 153.874 248.466 154.014C248.783 154.091 249.076 154.245 249.321 154.46C249.565 154.676 249.753 154.948 249.868 155.252V155.252Z" fill="white" stroke="#263238" stroke-linecap="round" stroke-linejoin="round"/>
<path d="M245.944 157.849L240.273 161.098" stroke="#263238" stroke-linecap="round" stroke-linejoin="round"/>
<path d="M247.244 157.109L246.514 157.524" stroke="#263238" stroke-linecap="round" stroke-linejoin="round"/>
<path d="M248.895 160.134L241.304 164.059" stroke="#263238" stroke-linecap="round" stroke-linejoin="round"/>
<path d="M247.865 164.129L242.891 166.331" stroke="#263238" stroke-linecap="round" stroke-linejoin="round"/>
<path d="M249.586 163.37L248.601 163.803" stroke="#263238" stroke-linecap="round" stroke-linejoin="round"/>
<path d="M269.166 212.502V252.808H111.121V212.502H81.4155V271.41C81.4155 273.611 82.2922 275.721 83.8526 277.277C85.4131 278.832 87.5296 279.706 89.7364 279.706H102.851C103.944 279.706 105.026 279.492 106.036 279.075C107.045 278.658 107.962 278.047 108.735 277.277C109.508 276.506 110.121 275.592 110.539 274.585C110.957 273.579 111.172 272.5 111.172 271.41V268.692H125.567L132.307 264.416H247.423L256.019 269.298H269.192V271.41C269.192 273.611 270.068 275.721 271.629 277.277C273.189 278.832 275.306 279.706 277.512 279.706H290.583C292.789 279.706 294.906 278.832 296.466 277.277C298.027 275.721 298.903 273.611 298.903 271.41V212.502H269.166Z" fill="#263238" stroke="#263238" stroke-linecap="round" stroke-linejoin="round"/>
<path d="M292.752 183.491C291.651 181.295 283.619 172.936 282.006 171.264C281.821 171.072 281.662 170.857 281.532 170.625C279.567 166.886 262.9 124.04 259.975 118.622C254.617 108.653 250.31 110.153 244.581 109.426C244.415 109.426 244.248 109.426 244.075 109.426L200.589 107.237C193.427 106.876 186.252 106.876 179.09 107.237C167.321 107.824 155.55 108.411 143.777 108.998C133.952 109.496 124.486 108.864 119.09 118.609C116.094 124.008 99.4974 166.854 97.5324 170.606C97.4033 170.839 97.2441 171.053 97.0587 171.244C95.4329 172.923 87.4129 181.276 86.312 183.472C85.0895 185.916 80.1866 195.073 80.1866 196.873C80.1866 198.456 81.3259 224.582 86.3632 245.054C87.0802 248.068 88.5878 250.837 90.7314 253.079C92.8751 255.32 95.5779 256.954 98.5629 257.811C98.8621 257.908 99.1712 257.973 99.4846 258.003H137.639C138.145 258.002 138.641 257.869 139.08 257.617C139.518 257.365 139.882 257.003 140.135 256.567L149.16 241.021C149.339 240.714 149.573 240.444 149.851 240.223C153.675 237.277 158.377 235.688 163.209 235.712H215.893C220.714 235.699 225.403 237.286 229.219 240.223C229.494 240.446 229.726 240.716 229.904 241.021L238.929 256.567C239.183 257.003 239.547 257.365 239.985 257.617C240.423 257.869 240.92 258.002 241.426 258.003H279.58C279.893 257.973 280.202 257.908 280.502 257.811C283.48 256.958 286.179 255.332 288.322 253.1C290.465 250.868 291.976 248.11 292.701 245.105C297.738 224.633 298.878 198.519 298.878 196.924C298.903 195.093 293.975 185.935 292.752 183.491ZM105.604 163.944C113.284 148.985 127.654 115.252 127.654 115.252C197.799 108.232 251.699 114.946 251.699 114.946L272.526 163.944C225.059 159.368 105.604 163.944 105.604 163.944Z" fill="#92E3A9" stroke="#263238" stroke-linecap="round" stroke-linejoin="round"/>
<path d="M139.303 258.003L137.159 262.885H241.298L239.768 258.003L229.661 240.593C229.661 240.593 225.68 236.011 215.881 235.712C206.081 235.412 163.197 235.712 163.197 235.712C158.156 235.584 153.246 237.323 149.416 240.593L139.303 258.003Z" fill="#787878" stroke="#263238" stroke-linecap="round" stroke-linejoin="round"/>
<path d="M148.181 199.981C148.181 199.981 156.45 214.659 158.902 217.084C161.353 219.509 164.112 219.521 167.479 219.828C170.846 220.134 217.097 219.828 217.097 219.828C217.097 219.828 220.771 219.19 222.614 216.471C224.457 213.752 230.576 199.981 230.576 199.981H148.181Z" fill="#263238" stroke="#263238" stroke-linecap="round" stroke-linejoin="round"/>
<path d="M156.386 201.972C156.386 201.972 163.011 213.708 164.976 215.667C166.941 217.626 169.143 217.62 171.844 217.869C174.545 218.117 211.579 217.869 211.579 217.869C211.579 217.869 214.517 217.377 215.989 215.175C217.461 212.974 222.39 201.972 222.39 201.972H156.386Z" fill="#787878" stroke="#263238" stroke-linecap="round" stroke-linejoin="round"/>
<path d="M223.933 252.808L222.096 247.766C221.531 246.209 220.492 244.868 219.123 243.931C217.755 242.993 216.126 242.507 214.466 242.54L164.726 243.038C163.017 243.071 161.363 243.654 160.012 244.699C158.66 245.744 157.683 247.196 157.225 248.839L155.983 252.808H223.933Z" fill="#263238" stroke="#263238" stroke-linecap="round" stroke-linejoin="round"/>
<path d="M155.221 255.252L153.698 260.14H226.589L224.816 255.252H155.221Z" fill="#263238" stroke="#263238" stroke-linecap="round" stroke-linejoin="round"/>
<path d="M281.724 170.97C281.724 170.97 283.254 159.062 286.013 159.062C288.771 159.062 301.022 162.419 301.323 164.863C301.624 167.307 298.903 170.026 296.426 170.664C293.949 171.302 288.746 171.889 288.746 171.889L287.517 176.465L281.724 170.97Z" fill="#263238" stroke="#263238" stroke-linecap="round" stroke-linejoin="round"/>
<path d="M97.3404 170.97C97.3404 170.97 95.8106 159.062 93.0519 159.062C90.2933 159.062 78.0424 162.419 77.7416 164.863C77.4407 167.307 80.1866 170.051 82.6381 170.664C85.0895 171.276 90.3189 171.889 90.3189 171.889L91.5478 176.465L97.3404 170.97Z" fill="#263238" stroke="#263238" stroke-linecap="round" stroke-linejoin="round"/>
<path d="M132.87 198.456C132.87 198.456 138.381 204.257 140.218 214.946C140.218 214.946 114.187 213.721 104.08 209.751C93.9736 205.782 92.7447 205.475 92.4375 203.644C92.1302 201.812 93.0775 188.679 97.0332 186.541C100.989 184.403 105.303 185.016 109.284 188.073C113.265 191.13 118.168 195.731 120.927 196.624C123.685 197.518 132.87 198.456 132.87 198.456Z" fill="white" stroke="#263238" stroke-linecap="round" stroke-linejoin="round"/>
<path d="M115.032 199.343C115.032 200.759 114.611 202.143 113.821 203.321C113.032 204.498 111.911 205.416 110.598 205.958C109.286 206.5 107.842 206.642 106.449 206.365C105.056 206.089 103.776 205.407 102.772 204.406C101.768 203.404 101.084 202.128 100.807 200.74C100.53 199.351 100.672 197.911 101.215 196.603C101.759 195.294 102.679 194.176 103.86 193.389C105.041 192.602 106.43 192.182 107.85 192.182C108.794 192.182 109.728 192.366 110.599 192.726C111.471 193.085 112.263 193.613 112.93 194.278C113.597 194.943 114.126 195.733 114.487 196.602C114.847 197.471 115.033 198.402 115.032 199.343V199.343Z" fill="white" stroke="#263238" stroke-linecap="round" stroke-linejoin="round"/>
<path d="M127.846 208.315C127.846 208.973 127.65 209.616 127.283 210.163C126.917 210.71 126.396 211.136 125.786 211.388C125.176 211.639 124.505 211.705 123.858 211.576C123.211 211.447 122.617 211.13 122.151 210.664C121.685 210.198 121.368 209.605 121.24 208.96C121.112 208.315 121.179 207.646 121.432 207.039C121.685 206.431 122.114 205.912 122.663 205.548C123.212 205.183 123.858 204.989 124.518 204.99C124.955 204.99 125.388 205.077 125.793 205.244C126.197 205.411 126.564 205.656 126.873 205.965C127.182 206.274 127.427 206.64 127.594 207.043C127.761 207.447 127.847 207.879 127.846 208.315Z" fill="white" stroke="#263238" stroke-linecap="round" stroke-linejoin="round"/>
<path d="M247.058 198.456C247.058 198.456 241.547 204.257 239.71 214.946C239.71 214.946 265.742 213.721 275.848 209.751C285.955 205.782 287.184 205.475 287.491 203.644C287.798 201.812 286.851 188.679 282.895 186.541C278.94 184.403 274.626 185.016 270.645 188.073C266.663 191.13 261.76 195.731 259.002 196.624C256.243 197.518 247.058 198.456 247.058 198.456Z" fill="white" stroke="#263238" stroke-linecap="round" stroke-linejoin="round"/>
<path d="M266.548 199.343C266.548 200.759 266.969 202.143 267.758 203.321C268.548 204.498 269.669 205.416 270.981 205.958C272.294 206.5 273.738 206.642 275.131 206.365C276.524 206.089 277.803 205.407 278.808 204.406C279.812 203.404 280.496 202.128 280.773 200.74C281.05 199.351 280.908 197.911 280.365 196.603C279.821 195.294 278.9 194.176 277.719 193.389C276.538 192.602 275.15 192.182 273.73 192.182C272.786 192.182 271.852 192.366 270.98 192.726C270.109 193.085 269.317 193.613 268.65 194.278C267.983 194.943 267.454 195.733 267.093 196.602C266.732 197.471 266.547 198.402 266.548 199.343V199.343Z" fill="white" stroke="#263238" stroke-linecap="round" stroke-linejoin="round"/>
<path d="M253.728 208.315C253.728 208.973 253.923 209.616 254.29 210.162C254.656 210.709 255.177 211.135 255.786 211.387C256.396 211.639 257.066 211.705 257.713 211.576C258.36 211.448 258.954 211.131 259.42 210.666C259.887 210.201 260.204 209.609 260.333 208.964C260.462 208.319 260.396 207.65 260.143 207.043C259.891 206.435 259.463 205.916 258.915 205.551C258.367 205.185 257.722 204.99 257.062 204.99C256.178 204.99 255.33 205.341 254.704 205.964C254.079 206.588 253.728 207.433 253.728 208.315Z" fill="white" stroke="#263238" stroke-linecap="round" stroke-linejoin="round"/>
<path d="M279.887 225.635C279.887 225.635 251.404 231.13 250.175 232.017C248.946 232.904 246.501 238.124 246.501 238.124L252.319 236.599C252.319 236.599 265.799 237.237 270.389 235.073C274.978 232.91 279.887 225.635 279.887 225.635Z" fill="#263238" stroke="#263238" stroke-linecap="round" stroke-linejoin="round"/>
<path d="M101.322 225.635C101.322 225.635 129.805 231.13 131.033 232.017C132.262 232.904 134.707 238.124 134.707 238.124L128.889 236.599C128.889 236.599 115.409 237.237 110.82 235.073C106.231 232.91 101.322 225.635 101.322 225.635Z" fill="#263238" stroke="#263238" stroke-linecap="round" stroke-linejoin="round"/>
<path d="M244.184 203.153L236.58 200.625H230.57" stroke="#263238" stroke-linecap="round" stroke-linejoin="round"/>
<path d="M136.244 202.795L141.313 199.904L148.181 199.981" stroke="#263238" stroke-linecap="round" stroke-linejoin="round"/>
<path d="M265.748 168.998C266.516 168.558 267.303 168.143 268.091 167.76" stroke="#263238" stroke-linecap="round" stroke-linejoin="round"/>
<path d="M232.029 212.348C236.823 201.851 247.775 180.964 263.092 170.651" stroke="#263238" stroke-linecap="round" stroke-linejoin="round"/>
<path d="M229.335 218.685C229.335 218.685 229.712 217.683 230.442 215.954" stroke="#263238" stroke-linecap="round" stroke-linejoin="round"/>
<path d="M115.928 170.664C114.648 169.898 113.368 169.177 111.979 168.5" stroke="#263238" stroke-linecap="round" stroke-linejoin="round"/>
<path d="M146.606 212.585C143.464 203.236 135.296 183.899 118.623 172.38" stroke="#263238" stroke-linecap="round" stroke-linejoin="round"/>
<path d="M148.2 217.958C148.2 217.958 147.976 216.988 147.47 215.303" stroke="#263238" stroke-linecap="round" stroke-linejoin="round"/>
<path d="M103.287 185.456C103.287 185.456 100.022 177.511 100.022 172.821Z" fill="white"/>
<path d="M103.287 185.456C103.287 185.456 100.022 177.511 100.022 172.821" stroke="#263238" stroke-linecap="round" stroke-linejoin="round"/>
<path d="M277.512 185.099C278.388 181.781 278.994 178.399 279.324 174.984Z" fill="white"/>
<path d="M277.512 185.099C278.388 181.781 278.994 178.399 279.324 174.984" stroke="#263238" stroke-linecap="round" stroke-linejoin="round"/>
<path d="M288.739 219.043L286.563 247.243L246.36 249.049C246.36 249.049 239.48 240.753 239.115 237.135C238.75 233.516 243.858 228.098 245.272 227.709C246.687 227.32 272.078 222.291 272.078 222.291" stroke="#263238" stroke-linecap="round" stroke-linejoin="round"/>
<path d="M92.0342 219.043L94.2105 247.243L134.407 249.017C134.407 249.017 141.287 240.721 141.646 237.103C142.004 233.484 136.967 228.098 135.501 227.709C134.035 227.32 108.702 222.291 108.702 222.291" stroke="#263238" stroke-linecap="round" stroke-linejoin="round"/>
<path d="M159.254 206.784L188.812 209.145C190.067 209.244 191.327 209.244 192.582 209.145L219.823 207.039" stroke="#263238" stroke-linecap="round" stroke-linejoin="round"/>
<path d="M161.2 209.872L188.812 212.074C190.067 212.173 191.327 212.173 192.582 212.074L218.895 210.045" stroke="#263238" stroke-linecap="round" stroke-linejoin="round"/>
<path d="M163.21 212.955L188.812 215.003C190.067 215.102 191.327 215.102 192.582 215.003L217.545 213.089" stroke="#263238" stroke-linecap="round" stroke-linejoin="round"/>
<path d="M105.604 163.944C105.604 163.944 225.053 159.368 272.526 163.944L251.699 114.946C251.699 114.946 197.799 108.226 127.654 115.252C127.66 115.252 113.284 148.966 105.604 163.944Z" stroke="#263238" stroke-linecap="round" stroke-linejoin="round"/>
</g>
<defs>
<clipPath id="clip0_308_546">
<rect width="453" height="280" fill="white" transform="translate(-39)"/>
</clipPath>
</defs>
</svg>
